# xmcd
#
# Track frame offsets: 
#        183
#        14053
#        38760
#        56683
#        79263
#        93855
#        110438
#        131163
#        152753
#
# Disc length: 2209 seconds
#
# Revision: 3
# Processed by: cddbd v1.5.2PL0 Copyright (c) Steve Scherf et al.
# Submitted via: ExactAudioCopy v0.95b4
#
DISCID=71089f09
DTITLE=Otis Spann - The Bottom Of The Blues
DYEAR=1968
DGENRE=Blues
TTITLE0=Heart Loaded With Trouble
TTITLE1=Diving Duck
TTITLE2=Shimmy Baby
TTITLE3=Looks Like Twins
TTITLE4=I`am A Fool
TTITLE5=My Man
TTITLE6=Down To Earth
TTITLE7=Nobody Knows
TTITLE8=Doctor Blues
EXTD=
EXTT0=
EXTT1=
EXTT2=
EXTT3=
EXTT4=
EXTT5=
EXTT6=
EXTT7=
EXTT8=
PLAYORDER=
